# xmcd CD database file
#
# Track frame offsets:
#	150
#	13285
#	26436
#	40466
#	50787
#	59977
#	71139
#	81902
#	101267
#	111615
#	125519
#	138894
#	154458
#	169270
#	183867
#	197562
#
# Disc length: 2832 seconds
#
# Revision: 0
# Processed by: cddbd v1.5.1PL0 Copyright (c) Steve Scherf et al.
# Submitted via: CDex 1.50Beta7
#
DISCID=f20b0e10
DTITLE=Kenny Rogers - Kenny Rogers
DYEAR=1999
DGENRE=Country
TTITLE0=Ruby Don'T Take Your Love To Town
TTITLE1=Shine On Ruby Mountain
TTITLE2=Loser
TTITLE3=Good time Liberator
TTITLE4=Camptown Ladies
TTITLE5=A Poem For My Little Lady
TTITLE6=Alway Leaving, Always Gone
TTITLE7=Lay It Down
TTITLE8=Ticket To Nowhere
TTITLE9=Sunshine
TTITLE10=I'm Gonna Sing You A Sad Song
TTITLE11=Good Lady Of Toronto
TTITLE12=All Gods Lovely Children
TTITLE13=Heed The Call
TTITLE14=Molly
TTITLE15=Tell It All Bother
EXTD=YEAR: 1999
EXTT0=
EXTT1=
EXTT2=
EXTT3=
EXTT4=
EXTT5=
EXTT6=
EXTT7=
EXTT8=
EXTT9=
EXTT10=
EXTT11=
EXTT12=
EXTT13=
EXTT14=
EXTT15=
PLAYORDER=
